<svg xmlns="http://www.w3.org/2000/svg" data-name="Layer 1" viewBox="0 0 687.046 637.414"><path fill="#a0616a" d="m56.203 611.806 13.078 3.434 19.472-48.813-19.303-5.068-13.247 50.447z"/><path d="m52.16 625.328 40.218 10.561.133-.508a16.186 16.186 0 0 0-11.542-19.765h-.001l-5.883-7.503-15.17 1.974-3.511-.922Z" fill="#2f2e41"/><path fill="#a0616a" d="m123.249 621.59 13.522-.001 6.433-52.157-19.958.001.003 52.157z"/><path d="m122.773 635.696 41.582-.001v-.526a16.186 16.186 0 0 0-16.185-16.185h-.001l-7.596-5.762-14.171 5.763h-3.63ZM89.428 371.998c-3.266 4.083-1.633 17.966-1.633 17.966s-5.716 44.913-3.266 48.996-1.633 7.35-4.083 13.066-4.9 19.599-4.9 19.599C61.664 483.057 62.48 535.32 62.48 535.32l-4.9 46.547c1.634 4.9 24.499 5.717 27.765 4.9s35.115-115.959 35.115-115.959-1.634 111.06-1.634 115.96 22.049 2.449 26.949 2.449 35.93-200.07 35.93-200.07v-11.433l-4.083-5.716s-84.927-4.083-88.194 0Z" fill="#2f2e41"/><circle cx="125.359" cy="197.243" r="25.315" fill="#a0616a"/><path d="m91.348 390.058-.138-.194c-7.374-10.324 3.717-35.132 5.39-38.729a9.029 9.029 0 0 1-6.18-9.643l.72-6.13.752-6.012-5.385-5.385-.015-.134-3.099-27.116-4.505-18.01a39.54 39.54 0 0 1 11.222-38.318l10.415-1.653 12.657-12.196h20.412l6.999 6.687c13.76 11.278 17.026 6.379 32.541 27.61l-11.109 29.27 6.21 43.168.003 7.812 3.235 3.594a11.185 11.185 0 0 1 2.653 9.675l-.426 2.127a11.185 11.185 0 0 1 6.531 7.937l1.136 5.3c.972 1.282 7.387 9.835 7.387 12.174 0 .35-.26.69-.816 1.066-4.371 2.96-28.533 8.995-39.227 4.716-11.39-4.554-56.671 2.278-57.127 2.348Z" fill="#3f3d56"/><path d="m78.487 287.368 21.05-4.12c7.784 11.625 11.963 43.412 11.963 43.412l23.271 48.263a9.47 9.47 0 1 1-14.374 7.613l-30.352-57.182Z" fill="#a0616a"/><path d="m78.37 292.362-.599-31.285 9.906-13.251a17.413 17.413 0 0 1 17.14-6.635 17.372 17.372 0 0 1 13.897 19.221c-1.681 13.248-5.498 29.825-14.134 33.576l-.087.038 8.95 31.302-33.192 4.636Z" fill="#3f3d56"/><path d="M203.381 289.598s-25.26-19.745-38.96-22.581l-12.126 17.692 32.794 20.097 63.848 18.46a9.47 9.47 0 1 0 4.87-15.554Z" fill="#a0616a"/><path d="m158.94 293.565-26.325-16.914-5.497-15.605a17.413 17.413 0 0 1 4.028-17.933 17.372 17.372 0 0 1 23.703-.848c10.07 8.77 23.048 11.709 21.358 20.97l4.848.709 24.793 18.829-14.62 30.156Z" fill="#3f3d56"/><path d="M96.645 180.61c2.843-4.398 8.177-7.33 13.348-6.506a18.228 18.228 0 0 1 30.542-10.631 5.668 5.668 0 0 1 5.543-.555 11.687 11.687 0 0 1 4.503 3.615 26.23 26.23 0 0 1 3.67 26.684c.633-2.297-1.67-4.459-3.996-4.974-2.326-.516-4.767-.028-7.126-.364-3.023-.43-5.741-2.184-8.77-2.579a19.965 19.965 0 0 0-7.586.975 20.57 20.57 0 0 1-7.584 1.019c-2.549-.303-5.832 9.356-5.788 16.16.008 1.289-.257 2.944-1.517 3.218-1.552.337-2.451-1.805-3.928-2.388a2.732 2.732 0 0 0-3.351 1.782 4.455 4.455 0 0 0 .85 3.989 13.163 13.163 0 0 0 3.192 2.768l-.609.506c-1.011 1.337-3.11 1.395-4.569.568a9.86 9.86 0 0 1-3.28-3.735c-2.698-4.488-5.065-9.27-6.017-14.418s-.37-10.737 2.473-15.135Z" fill="#2f2e41"/><path d="M686.053 36.552H53.729a1.016 1.016 0 0 1 0-2.03h632.324a1.016 1.016 0 0 1 0 2.03Z" fill="#cacaca"/><ellipse cx="76.085" cy="11.169" rx="10.925" ry="11.169" fill="#3f3d56"/><ellipse cx="113.827" cy="11.169" rx="10.925" ry="11.169" fill="#3f3d56"/><ellipse cx="151.569" cy="11.169" rx="10.925" ry="11.169" fill="#3f3d56"/><path d="M663.436 2.768h-26.81a2.03 2.03 0 0 0 0 4.06h26.81a2.03 2.03 0 0 0 0-4.06ZM663.436 10.388h-26.81a2.03 2.03 0 0 0 0 4.06h26.81a2.03 2.03 0 0 0 0-4.06ZM663.436 17.998h-26.81a2.03 2.03 0 0 0 0 4.06h26.81a2.03 2.03 0 0 0 0-4.06Z" fill="#3f3d56"/><path d="M629.376 76.89h-518.97a10.856 10.856 0 0 0-10.84 10.84v1.748a10.856 10.856 0 0 0 10.84 10.84h518.97a10.856 10.856 0 0 0 10.84-10.84v-1.749a10.856 10.856 0 0 0-10.84-10.84Z" fill="#f0f0f0"/><path d="M173.036 92.929h-49.4a4.172 4.172 0 1 1 0-8.343h49.4c5.38-.075 5.433 8.419 0 8.343ZM320.814 92.929h-49.4a4.172 4.172 0 0 1 0-8.343h49.4c5.38-.075 5.433 8.419 0 8.343ZM468.592 92.929h-49.4a4.172 4.172 0 0 1 0-8.343h49.4c5.38-.075 5.433 8.419 0 8.343Z" fill="#fff"/><path d="M608.71 93.38h-49.4a4.172 4.172 0 1 1 0-8.344h49.4c5.38-.075 5.434 8.42 0 8.343Z" fill="#6c63ff"/><path fill="#fff" d="M529.834 76.889h1.802v23.428h-1.802z"/><path d="M270.727 304.918c-.074 0-.147-.001-.222-.004a5.39 5.39 0 0 1-4.334-2.465 60.897 60.897 0 0 0-12.82-13.887c-3.009-2.405-6.153-4.64-9.193-6.804-7.844-5.577-15.23-10.83-19.33-18.087-8.94-15.826 1.588-37.87 16.628-47.755 16.87-11.087 39.06-12.826 60.525-13.054q3.346-.036 6.697-.035a638.494 638.494 0 0 1 115.31 10.543c12.649 2.334 25.889 5.193 36.528 12.13 10.576 6.897 17.005 17.757 16.378 27.67-.916 14.47-16.255 25.282-30.223 28.109-13.314 2.692-27.144.872-41.786-1.054-3.233-.425-6.575-.865-9.88-1.247-35.92-4.152-103.398 8.645-106.253 9.192l-2.832.542-10.99 14.142a5.274 5.274 0 0 1-4.203 2.064Z" fill="#6c63ff"/><path d="M430.683 234.328H278.86a3.303 3.303 0 0 1 0-6.607h151.822a3.303 3.303 0 0 1 0 6.607ZM430.683 254.604H278.86a3.303 3.303 0 1 1-.007-6.606h151.829a3.303 3.303 0 0 1 0 6.606ZM296.554 274.88H278.86a3.303 3.303 0 0 1 0-6.607h17.693a3.303 3.303 0 0 1 0 6.607Z" fill="#fff"/><path d="m541.846 410.503-8.753-11.265-2.256-.431c-2.274-.436-56.023-10.63-84.635-7.322-2.633.304-5.295.654-7.87.993-11.663 1.535-22.68 2.984-33.284.84-11.126-2.252-23.345-10.865-24.074-22.39-.5-7.896 4.62-16.547 13.045-22.04 8.475-5.527 19.021-7.804 29.096-9.662a508.586 508.586 0 0 1 91.85-8.399q2.669 0 5.334.028c17.099.182 34.773 1.567 48.21 10.398 11.981 7.875 20.367 25.433 13.246 38.04-3.266 5.78-9.15 9.964-15.397 14.407-2.422 1.722-4.926 3.503-7.323 5.419a48.507 48.507 0 0 0-10.211 11.061 4.294 4.294 0 0 1-3.453 1.964l-.177.003a4.2 4.2 0 0 1-3.348-1.644Z" fill="#f2f2f2"/><path d="M417.783 355.92h120.932a2.631 2.631 0 0 0 0-5.263H417.783a2.631 2.631 0 0 0 0 5.262ZM417.783 372.07h120.932a2.631 2.631 0 1 0 .005-5.262H417.783a2.631 2.631 0 0 0 0 5.262ZM524.622 388.22h14.093a2.631 2.631 0 0 0 0-5.262h-14.093a2.631 2.631 0 0 0 0 5.262Z" fill="#fff"/><circle cx="272.602" cy="311.891" r="16.057" fill="#fff"/><path d="M272.602 328.144a16.253 16.253 0 1 1 16.253-16.253 16.271 16.271 0 0 1-16.253 16.253Z" fill="#3f3d56"/><path d="M271.4 318.308c-.034 0-.069 0-.103-.002a2.1 2.1 0 0 1-1.556-.81l-2.684-3.449a2.1 2.1 0 0 1 .368-2.948l.097-.075a2.1 2.1 0 0 1 2.949.368 1.532 1.532 0 0 0 2.32.113l5.449-5.752a2.104 2.104 0 0 1 2.97-.08l.09.085a2.1 2.1 0 0 1 .08 2.97l-8.456 8.924a2.098 2.098 0 0 1-1.524.656Z" fill="#fff"/><circle cx="546.168" cy="418.377" r="16.057" fill="#fff"/><path d="M546.168 434.63a16.253 16.253 0 1 1 16.253-16.253 16.271 16.271 0 0 1-16.253 16.253Z" fill="#e6e6e6"/><path d="M544.966 424.795c-.035 0-.069-.002-.103-.003a2.1 2.1 0 0 1-1.557-.809l-2.683-3.45a2.1 2.1 0 0 1 .368-2.948l.097-.075a2.1 2.1 0 0 1 2.949.368 1.532 1.532 0 0 0 2.32.113l5.448-5.752a2.104 2.104 0 0 1 2.97-.08l.09.085a2.1 2.1 0 0 1 .08 2.97l-8.455 8.924a2.098 2.098 0 0 1-1.524.657Z" fill="#fff"/><path d="m249.4 619.93-7.71-12.39-1.54 7.08c-.27 1.24-.54 2.5-.79 3.75-2.19-1.87-4.52-3.6-6.8-5.26q-10.5-7.62-20.99-15.26l2.19 12.7c1.35 7.82 2.76 15.8 6.1 22.95.37.81.77 1.61 1.2 2.39h32.54a10.488 10.488 0 0 0 .54-2.24.775.775 0 0 0 .01-.15c.51-4.85-2.17-9.42-4.75-13.57Z" fill="#f0f0f0"/><path d="m276.94 637.107-275.75.307a1.19 1.19 0 0 1 0-2.381l275.75-.307a1.19 1.19 0 1 1 0 2.381Z" fill="#cacaca"/></svg>